<?xml version="1.0" encoding="utf-8"?>
<!-- Generator: Adobe Illustrator 18.0.0, SVG Export Plug-In . SVG Version: 6.00 Build 0)  -->
<!DOCTYPE svg PUBLIC "-//W3C//DTD SVG 1.1//EN" "http://www.w3.org/Graphics/SVG/1.1/DTD/svg11.dtd">
<svg version="1.1" id="Layer_1" xmlns="http://www.w3.org/2000/svg" xmlns:xlink="http://www.w3.org/1999/xlink" x="0px" y="0px"
	 viewBox="0 0 200 200" enable-background="new 0 0 200 200" xml:space="preserve">
<g>
	<path fill="#FFFFFF" d="M196.2,91.1L108.9,3.8c-5-5-13.2-5-18.2,0L72.5,21.9l23,23c5.3-1.8,11.5-0.6,15.7,3.7
		c4.3,4.3,5.5,10.5,3.6,15.8l22.2,22.2c5.4-1.8,11.6-0.7,15.8,3.6c6,6,6,15.7,0,21.7c-6,6-15.7,6-21.7,0c-4.5-4.5-5.6-11.1-3.3-16.7
		l-20.7-20.7v54.4c1.5,0.7,2.8,1.7,4.1,2.9c6,6,6,15.7,0,21.7c-6,6-15.7,6-21.7,0c-6-6-6-15.7,0-21.7c1.5-1.5,3.2-2.6,5-3.3V73.6
		c-1.8-0.7-3.5-1.9-5-3.3c-4.5-4.5-5.6-11.2-3.3-16.8L63.6,30.8L3.8,90.7c-5,5-5,13.2,0,18.2l87.3,87.3c5,5,13.2,5,18.2,0l86.9-86.9
		C201.3,104.3,201.3,96.1,196.2,91.1z"/>
</g>
</svg>
