<?xml version="1.0" encoding="utf-8"?>
<!-- Generator: Adobe Illustrator 18.0.0, SVG Export Plug-In . SVG Version: 6.00 Build 0)  -->
<!DOCTYPE svg PUBLIC "-//W3C//DTD SVG 1.1//EN" "http://www.w3.org/Graphics/SVG/1.1/DTD/svg11.dtd">
<svg version="1.1" id="Layer_1" xmlns="http://www.w3.org/2000/svg" xmlns:xlink="http://www.w3.org/1999/xlink" x="0px" y="0px"
	 viewBox="0 0 200 200" enable-background="new 0 0 200 200" xml:space="preserve">
<g>
	<path fill="#FFFFFF" d="M110.9,107H74.8v36.5h36.1c6.2,0,11-1.6,14.4-4.8c3.4-3.2,5.2-7.8,5.2-13.7c0-5.8-1.7-10.2-5.2-13.3
		C121.9,108.5,117.1,107,110.9,107z"/>
	<path fill="#FFFFFF" d="M166.7,0H33.3C15,0,0,15,0,33.3v133.3C0,185,15,200,33.3,200h133.3c18.3,0,33.3-15,33.3-33.3V33.3
		C200,15,185,0,166.7,0z M148.5,140.4c-1.6,4-4.2,7.4-7.7,10.3c-3.5,2.9-7.9,5.2-13.4,6.9s-11.9,2.5-19.4,2.5H54.3l0-116.7H111
		c10.5,0,18.9,2.4,25.2,7.2c6.3,4.8,9.5,12,9.5,21.7c0,5.9-1.4,10.9-4.3,15.1c-2.9,4.2-7,7.5-12.4,9.7v0.3
		c7.2,1.5,12.6,4.9,16.3,10.2c3.7,5.3,5.6,11.9,5.6,19.9C150.9,132.2,150.1,136.5,148.5,140.4z"/>
	<path fill="#FFFFFF" d="M120.4,88.1c3.3-2.8,4.9-6.8,4.9-12c0-5.9-1.5-10-4.4-12.4s-7.2-3.6-12.7-3.6H74.8v32.2h33.3
		C113,92.3,117.1,90.9,120.4,88.1z"/>
</g>
</svg>
