<?xml version="1.0" encoding="utf-8"?>
<!-- Generator: Adobe Illustrator 18.0.0, SVG Export Plug-In . SVG Version: 6.00 Build 0)  -->
<!DOCTYPE svg PUBLIC "-//W3C//DTD SVG 1.1//EN" "http://www.w3.org/Graphics/SVG/1.1/DTD/svg11.dtd">
<svg version="1.1" id="Layer_1" xmlns="http://www.w3.org/2000/svg" xmlns:xlink="http://www.w3.org/1999/xlink" x="0px" y="0px"
	 viewBox="0 0 60 60" enable-background="new 0 0 60 60" xml:space="preserve">
<path fill="#FFFFFF" d="M3.9,14.7c-5.3,7.6-4.6,17.5-0.6,25.6c0.1,0.2,0.2,0.4,0.3,0.6c0.1,0.1,0.1,0.2,0.2,0.4
	c0,0.1,0.1,0.1,0.1,0.2c0.1,0.1,0.1,0.3,0.2,0.4c0.1,0.2,0.3,0.4,0.4,0.7c0.1,0.1,0.1,0.2,0.2,0.4c0.1,0.2,0.3,0.5,0.4,0.7
	c0.1,0.1,0.1,0.2,0.2,0.3c0.2,0.3,0.4,0.6,0.6,0.9c0,0,0,0,0,0C6,44.9,6.1,45,6.1,45c0.2,0.3,0.4,0.5,0.6,0.8
	c0.1,0.1,0.1,0.2,0.2,0.3c0.2,0.2,0.4,0.5,0.6,0.7c0.1,0.1,0.1,0.2,0.2,0.2c0.2,0.3,0.5,0.6,0.8,0.9c0,0,0,0,0,0c0,0,0,0,0,0
	c0.3,0.3,0.5,0.5,0.8,0.8c0.1,0.1,0.2,0.2,0.3,0.3c0.2,0.2,0.4,0.4,0.6,0.6c0.1,0.1,0.2,0.2,0.3,0.2c0.3,0.3,0.6,0.5,0.8,0.8
	c0,0,0,0,0,0c0,0,0.1,0.1,0.1,0.1c0.3,0.2,0.5,0.4,0.8,0.7c0.1,0.1,0.2,0.2,0.3,0.3c0.2,0.2,0.4,0.3,0.7,0.5
	c0.1,0.1,0.2,0.2,0.3,0.3c0.2,0.2,0.5,0.3,0.7,0.5c0.1,0.1,0.2,0.1,0.3,0.2c0,0,0,0,0.1,0.1c0.2,0.2,0.5,0.3,0.7,0.5
	c0.1,0.1,0.2,0.1,0.3,0.2c0.4,0.2,0.7,0.5,1.1,0.7c0.1,0.1,0.2,0.1,0.3,0.2c0.3,0.2,0.5,0.3,0.8,0.5c0.2,0.1,0.3,0.2,0.5,0.2
	c0.2,0.1,0.4,0.2,0.6,0.3c0,0,0.1,0,0.1,0.1c0.1,0,0.2,0.1,0.2,0.1c0.3,0.2,0.6,0.3,0.9,0.4c0.1,0,0.1,0.1,0.2,0.1
	c0.4,0.2,0.7,0.3,1.1,0.5c0.1,0,0.2,0.1,0.3,0.1c0.3,0.1,0.7,0.3,1,0.4c0,0,0.1,0,0.1,0c0.4,0.1,0.8,0.3,1.1,0.4
	c0.1,0,0.2,0.1,0.3,0.1c0.4,0.1,0.8,0.3,1.2,0.3c25.6,4.7,33.1-15.4,33.1-15.4c-6.3,8.1-17.4,10.3-27.9,7.9
	c-0.4-0.1-0.8-0.2-1.2-0.3c-0.1,0-0.2-0.1-0.3-0.1c-0.4-0.1-0.8-0.2-1.1-0.4c-0.1,0-0.1,0-0.2-0.1c-0.3-0.1-0.7-0.2-1-0.4
	c-0.1,0-0.2-0.1-0.3-0.1c-0.4-0.1-0.7-0.3-1.1-0.5c-0.1,0-0.1-0.1-0.2-0.1c-0.3-0.1-0.6-0.3-0.9-0.4c-0.1,0-0.2-0.1-0.3-0.1
	c-0.2-0.1-0.5-0.2-0.7-0.4c-0.2-0.1-0.3-0.2-0.5-0.2c-0.3-0.2-0.6-0.3-0.8-0.5C22,47.1,21.9,47,21.8,47c-0.4-0.2-0.7-0.4-1.1-0.7
	c-0.1-0.1-0.2-0.1-0.3-0.2c-0.3-0.2-0.5-0.3-0.8-0.5c-0.1-0.1-0.2-0.1-0.3-0.2c-0.2-0.2-0.5-0.3-0.7-0.5c-0.1-0.1-0.2-0.2-0.3-0.2
	c-0.2-0.2-0.4-0.3-0.7-0.5c-0.1-0.1-0.2-0.2-0.3-0.2c-0.3-0.2-0.6-0.5-0.8-0.7c0,0-0.1-0.1-0.1-0.1c-0.3-0.3-0.6-0.5-0.9-0.8
	c-0.1-0.1-0.2-0.2-0.2-0.2c-0.2-0.2-0.4-0.4-0.6-0.6c-0.1-0.1-0.2-0.2-0.2-0.2c-0.3-0.3-0.5-0.5-0.8-0.8c0,0,0,0,0,0
	c-0.3-0.3-0.5-0.6-0.8-0.9c-0.1-0.1-0.1-0.2-0.2-0.2c-0.2-0.2-0.4-0.5-0.6-0.7c-0.1-0.1-0.1-0.2-0.2-0.3c-0.2-0.3-0.4-0.6-0.6-0.9
	c-5.8-8-7.9-19-3.3-28"/>
<path fill="#FFFFFF" d="M20.3,8.3c-3.8,5.5-3.6,12.9-0.6,18.7c0.5,1,1.1,1.9,1.7,2.8c0.6,0.8,1.2,1.8,2,2.5c0.3,0.3,0.6,0.6,0.9,0.9
	c0.1,0.1,0.1,0.1,0.2,0.2c0.3,0.3,0.6,0.5,0.9,0.8c0,0,0,0,0,0c0,0,0,0,0,0c0.3,0.3,0.7,0.6,1,0.8c0.1,0.1,0.2,0.1,0.2,0.2
	c0.3,0.3,0.7,0.5,1.1,0.8c0,0,0,0,0,0c0.2,0.1,0.3,0.2,0.5,0.3c0.1,0,0.2,0.1,0.2,0.2c0.3,0.2,0.5,0.3,0.8,0.5c0,0,0.1,0,0.1,0.1
	c0.2,0.1,0.5,0.3,0.7,0.4c0.1,0.1,0.2,0.1,0.2,0.1c0.2,0.1,0.3,0.2,0.5,0.3c0,0,0.1,0,0.1,0c0.3,0.2,0.7,0.3,1,0.5
	c0.1,0,0.2,0.1,0.2,0.1c0.3,0.1,0.6,0.2,0.8,0.3c0.1,0,0.2,0.1,0.4,0.1c0.3,0.1,0.5,0.2,0.8,0.3c0.1,0,0.2,0.1,0.4,0.1
	c0.4,0.1,0.7,0.3,1.1,0.3c19.8,3.3,24.4-12,24.4-12c-4.1,5.9-12.1,8.8-20.6,6.6c-0.4-0.1-0.8-0.2-1.1-0.3c-0.1,0-0.2-0.1-0.3-0.1
	c-0.3-0.1-0.5-0.2-0.8-0.3c-0.1,0-0.2-0.1-0.4-0.1c-0.3-0.1-0.6-0.2-0.8-0.3c-0.1,0-0.2-0.1-0.2-0.1c-0.4-0.2-0.7-0.3-1-0.5
	c-0.2-0.1-0.3-0.2-0.5-0.3c-0.1-0.1-0.2-0.1-0.3-0.2c-0.2-0.1-0.4-0.2-0.7-0.4c-0.1,0-0.1-0.1-0.2-0.1c-0.3-0.2-0.5-0.3-0.8-0.5
	c-0.1,0-0.2-0.1-0.2-0.2c-0.2-0.1-0.3-0.2-0.5-0.3c-0.4-0.3-0.7-0.5-1.1-0.8c-0.1-0.1-0.2-0.1-0.2-0.2c-3.7-2.9-6.7-7-8.1-11.5
	c-1.5-4.7-1.2-10,1.4-14.4"/>
<path fill="#FFFFFF" d="M34.2,3.5c-2.3,3.3-2.5,7.5-0.9,11.1c1.7,3.9,5.1,7,9,8.4c0.2,0.1,0.3,0.1,0.5,0.2c0.1,0,0.1,0,0.2,0.1
	c0.2,0.1,0.5,0.2,0.7,0.2c10.9,2.1,13.9-5.6,14.7-6.7c-2.6,3.7-7,4.6-12.3,3.3c-0.4-0.1-0.9-0.3-1.3-0.4c-0.5-0.2-1-0.4-1.5-0.6
	c-0.9-0.5-1.9-1-2.7-1.6c-4.8-3.6-7.8-10.6-4.6-16.2"/>
</svg>
