<?xml version="1.0" encoding="utf-8"?>
<!-- Generator: Adobe Illustrator 18.0.0, SVG Export Plug-In . SVG Version: 6.00 Build 0)  -->
<!DOCTYPE svg PUBLIC "-//W3C//DTD SVG 1.1//EN" "http://www.w3.org/Graphics/SVG/1.1/DTD/svg11.dtd">
<svg version="1.1" xmlns="http://www.w3.org/2000/svg" xmlns:xlink="http://www.w3.org/1999/xlink" x="0px" y="0px"
	 viewBox="0 0 600 600" enable-background="new 0 0 600 600" xml:space="preserve">
<g id="Layer_1">
</g>
<g id="Layer_2">
	<g>
		<path fill="#F1F2F2" d="M494.9,405.2c-6.3,0-13.2-2.9-18.1-25.4c-4.9-22.5-12.2-45.4-12.2-45.4c7.8,0,12.2-3.4,12.2-3.4
			c-5.4-2.4-17.1-10.7-24.9-21c-1.7-2.2-3.9-4.7-6.4-7.2c0-0.1,0-0.2,0-0.3c0,0-13.9-13.9-20.8-19.5c0,0,0,0.3,0.1,0.9
			c-0.5-0.4-0.8-0.7-0.8-0.7s0-10.7,0-33.2c0-22.5,14.4-40,14.4-40c-9.8,0-14.4,8.8-14.4,8.8s0-0.4,0-35.5
			c11.8-3.3,27.6-9.7,37.6-21.9c17.5-21.3,14.8-45.7,14.8-45.7s-19.8,20.9-49.1,26.9c6.5-26.8,20.4-39.2,20.4-39.2
			c-7.3-0.5-12.2,2.9-12.2,2.9c3.4-34.7,14-44.9,14-44.9c-39.1-10.3-60.8,12.7-60.8,12.7c-4.4-21,12.8-33.2,12.8-33.2
			c-20-4.4-36.6,1.5-36.6,1.5c0-13.3,2.3-22.7,4.9-29.2c0.1,0,0.2,0,0.2,0c3.4-7,7.2-11.8,7.2-11.8c0,0,0,0,0,0l0,0
			c-60.9,0-95.6,45.7-95.7,45.9c-2.4-19.5,2.9-36.6,2.9-36.6c0,0,0,0,0,0l0,0c-56.3,23.7-73.1,74.9-74.6,79.7
			c-0.1,0.2-0.1,0.4-0.1,0.4c-3.9-9.3-4.4-30.3-4.4-30.3s-24.4,40.9-28.8,69.2c-0.6,3.7-0.9,8.3-1.1,13.5
			c-30.5-5.4-51.3-27.4-51.3-27.4s-2.6,24.4,14.8,45.7c9.9,12,25.5,18.5,37.2,21.7c1.5,28.6,4.3,56.1,4.3,56.1s-3.9-4.9-12.2-5.9
			c0,0,8.8,9.8,8.8,31.7c0,0-3.4-2.9-9.3-1.5c0,0,9.3,8.3,10.3,22.5c0,0-10.7,7.3-16.6,14.6c0,0-9.3,0.5-14.2,2c0,0,7.8,4.4,9.3,8.3
			c0,0-22.9,23.4-34.7,42.5c0,0,10.3-6.3,17.6-4.4c0,0-16.1,19.5-21.5,51.8c0,0,7.8-3.9,11.2-2c0,0-9.8,20.5-10.3,42l-10.7,6.3
			l8.3,5.9c0,0-6.3,26.4-7.8,41.5c0,0,4.9-4.9,8.8-6.3c0,0,5.4,12.7,12.7,22.5c6.7,8.9,21.1,16.6,31,17.9c0,0,0,0,0,0
			c1.8,0.3,3.9,0.1,3.9,0.1c0,0,0,0,0,0l0,0c-0.5,3.3-1.1,6.6-2,9.9c-0.1,0.5-0.7,0.8-1.2,0.5c-1.1-0.8-2.3-1.5-3.5-2.1
			c-3.2-1.1-5.2,0.3-5.2,0.3c3.2,0.8,7,7,7.9,9.5c-2.6-0.2-4.5,0.4-7,2c2.4,0.3,5.1,1.6,5.1,1.6c-14.5,6.2-16.7,15.1-21.4,21.4
			c1.4-0.8,6.1-2.8,6.1-2.8c-4.3,4-6.6,13.7-6.9,16.9c-0.4,4.1-0.4,4.1-0.7,7.4c1.8-0.6,3.2-1,4.4-1.3c0,0,0,0,0,0
			c0.2-0.1,0.4-0.1,0.5-0.2c1.2-0.3,2.4-0.5,3.9-0.8c4.8-0.7,18.2-2.5,23.2-2l0,0.2l-0.8,9.3c0,0,0.1,0,0.2,0
			c2.5-0.7,4.6-0.6,6.9-0.9c0,0,0,0,0,0c11.3-0.9,19.3,0.9,32.4-0.2c2.6-0.3,5-0.7,7.3-2c0.6-1.9,0.7-2.1,1-4.6
			c0.1-0.4,0.1-0.9,0.2-1.4c0.5,0,4-0.4,5.4-0.5c2-0.1,4.1-0.2,5.6-0.3c7.9,0,18.2,0.9,18.2,0.9l0,0c2.3-31.7,19.8-62.1,21-64.1
			c8.5,2.6,44.7,12.3,79.5,0c2.8,4.2,7.5,14.7,8.9,17.9c2.1,5.4,7.5,19.9,9.7,34.1c0.3,3,0.5,5.7,0.7,7.7c0.1,2.6,0.3,4.4,0.3,4.4
			c0.2,0,0.4-0.1,0.6-0.1c0.4,0,0.8-0.1,1.5-0.2c10.1-1.1,22.8,0.2,22.8,0.2c-0.1,1.7,0.9,5.7,1,6.4c4.9-0.7,9.8-0.9,14.8-1
			c0,0,0,0,0,0c2.7,0,5.4,0,8,0.2c5.8,0.3,11.4,1.4,17.1,2.4c0,0.1,0,0.1,0,0.2c0.6,0.1,1.1,0.1,1.7,0.1c3,0.5,6.1,1.1,9.2,1.4
			c0.1-3.8,0-7.1,0-10c0.6,0,3.6,0.2,5.1,0.3c5.2,0.5,10.8,1.3,13.6,1.7c1.5,0.4,2.7,0.6,3.9,0.8c0.2,0.1,0.4,0.1,0.5,0.2
			c0,0,0,0,0,0c1.3,0.3,2.6,0.6,4.4,1.3c-0.3-3.3-0.2-3.2-0.7-7.4c-0.3-3.2-2.6-12.9-6.9-16.9c0,0,4.7,2,6.1,2.8
			c-4.6-6.3-6.9-15.2-21.4-21.4c0,0,2.6-1.2,5.1-1.6c-2.5-1.6-4.5-2.2-7-2c0.9-2.5,4.7-8.7,7.9-9.5c0,0-2-1.4-5.2-0.3
			c-1.2,0.6-2.4,1.3-3.5,2.1c-0.4,0.3-1.1,0-1.2-0.5c-1-3.7-1.7-7.6-2.3-11.4c29.2-1.1,33.3-16,33.3-16c2.4,2,2.4,6.3,2.4,6.3
			c12.7-16.6,11.2-33.2,11.2-33.2c2.9,0.5,5.4,2.4,5.4,2.4c1.5-25.4-6.3-68.8-6.3-68.8c3.9,2,6.3-0.5,6.3-0.5
			c-4.4-2-4.9-6.8-4.9-6.8C493.9,411.1,494.9,405.2,494.9,405.2z M348.4,524.3c0,0,0.1,0,0.1,0c0,0,0,0,0,0
			C348.4,524.2,348.4,524.2,348.4,524.3z M413.9,275.1c0,0-6.8-1.6-13.5-2.5c-1.2,11.6-3.6,26.4-3.6,26.4l0,0.5
			c-0.2,0.7-0.4,1.5-0.5,2.3c-1.4,5.8-2.7,9.3-8.2,11.3c-5.4,2-18.1,3.9-31,4.6c-4.8,0.2-10.2,0-15.7-0.8
			c-8.1-1.2-15.5-3.4-18.3-5.5c-4.1-3-6.3-10.6-7.7-15.7l-0.4-1.5c-0.5-1.7-1-3.5-1.4-5.3c-0.6-2.5-1.3-5.1-1.8-6
			c-0.1-0.2-0.6-0.7-2.3-1c-0.6-0.1-1.2-0.1-1.9-0.1c-0.7,0-1.3,0.1-1.9,0.1c-1.8,0.3-2.2,0.8-2.3,1c-0.5,0.9-1.2,3.5-1.8,6
			c-0.4,1.7-0.9,3.6-1.4,5.3l-0.4,1.5c-1.4,5-3.6,12.6-7.7,15.7c-2.8,2.1-10.2,4.3-18.3,5.5c-5.5,0.8-10.9,1.1-15.7,0.8
			c-12.9-0.7-25.6-2.5-31-4.6c-5.5-2.1-6.8-5.5-8.2-11.3c-0.2-0.8-0.4-1.5-0.5-2.3l0-0.5c0,0-2.4-14.9-3.6-26.4
			c-6.7,0.9-13.5,2.5-13.5,2.5l-1.2-8.2c6.5-2.7,14-3.7,14-3.7c7.1-1,19.4-2.2,34.3-1.5c19.3,1,35.8,3.7,45.7,5.3
			c2.9,0.5,5.3,0.9,7,1.1l1.9,0.3c2.2,0.3,3.6,0.5,4.8,0.5c1.2-0.1,2.6-0.2,4.8-0.5l1.9-0.3c1.8-0.2,4.1-0.6,7-1.1
			c9.9-1.6,26.4-4.3,45.7-5.3c14.8-0.8,27.2,0.4,34.3,1.5c0,0,7.6,1,14,3.7L413.9,275.1z"/>
		<path fill="#F1F2F2" d="M291.6,275.2c-4.9-2.2-26.4-5.2-35.3-5.6c-7-0.3-21.8,0.7-28.5,1.7c-1.1,0.2-1.8,0.3-2.3,0.4
			c-0.8,0.2-3.6,1.6-3.5,4.6c0.2,4,2.8,22.7,4.1,26.8c1,3,4.4,3.8,14,5.7l0.7,0.1c9.4,1.8,26.3,1.6,35.6,0.2
			c0.4-0.1,0.8-0.1,1.1-0.2c8.6-1.4,9.5-2.6,12.3-7c2.8-4.6,4.6-18.1,4.9-20.7l0-0.1C295,278.2,295.2,276.8,291.6,275.2z"/>
		<path fill="#F1F2F2" d="M389.3,271.6c-0.5-0.1-1.3-0.3-2.3-0.4c-6.8-1-21.6-2-28.5-1.7c-8.8,0.4-30.4,3.4-35.3,5.6
			c-3.6,1.6-3.4,3-3.1,5.8l0,0.1c0.3,2.7,2.1,16.2,4.9,20.7c2.8,4.4,3.7,5.5,12.3,7c0.4,0.1,0.8,0.1,1.2,0.2
			c9.2,1.4,26.1,1.6,35.6-0.2l0.7-0.1c9.6-1.9,13-2.7,14-5.7c1.3-4.1,3.9-22.8,4.1-26.8C393,273.2,390.1,271.8,389.3,271.6z"/>
	</g>
	<g>
	</g>
	<g>
	</g>
	<g>
	</g>
	<g>
	</g>
	<g>
	</g>
	<g>
	</g>
</g>
</svg>
