<?xml version="1.0" encoding="utf-8"?>
<!-- Generator: Adobe Illustrator 18.0.0, SVG Export Plug-In . SVG Version: 6.00 Build 0)  -->
<!DOCTYPE svg PUBLIC "-//W3C//DTD SVG 1.1//EN" "http://www.w3.org/Graphics/SVG/1.1/DTD/svg11.dtd">
<svg version="1.1" id="Layer_1" xmlns="http://www.w3.org/2000/svg" xmlns:xlink="http://www.w3.org/1999/xlink" x="0px" y="0px"
	 viewBox="0 0 200 200" enable-background="new 0 0 200 200" xml:space="preserve">
<g>
	<g>
		<path fill="#FFFFFF" d="M0,0v200H200V0H0z M81.9,64.8H45.3V91h34.1v14.2H45.3v40.3H28.3V50.5h53.5V64.8z M156.5,145.5H142
			l-7.4-27.9c-1.9-7.2-3.3-13.6-4.7-22h-0.2c-1.3,8.5-2.9,15.2-4.7,22l-7.9,27.9h-14.7L84,76.9H100v0l6.5,31.1
			c1.4,7.3,2.8,14.8,4,22.2h0.2c1.3-7.5,3.3-15.1,5.1-22.1l8-31.3h12.8l7.8,30.4c1.9,8,3.6,15.5,5,23h0.2c1-7.5,2.4-14.9,4.1-23
			l6.9-30.4H176L156.5,145.5z"/>
	</g>
</g>
</svg>
