<?xml version="1.0" encoding="utf-8"?>
<!-- Generator: Adobe Illustrator 18.0.0, SVG Export Plug-In . SVG Version: 6.00 Build 0)  -->
<!DOCTYPE svg PUBLIC "-//W3C//DTD SVG 1.1//EN" "http://www.w3.org/Graphics/SVG/1.1/DTD/svg11.dtd">
<svg version="1.1" id="Layer_1" xmlns="http://www.w3.org/2000/svg" xmlns:xlink="http://www.w3.org/1999/xlink" x="0px" y="0px"
	 viewBox="0 0 200 200" enable-background="new 0 0 200 200" xml:space="preserve">
<g>
	<g>
		<g>
			<path fill="#FFFFFF" d="M84.3,65.4H84c-1.3,5.4-2.7,11.8-4.3,17.3l-7,22.8H96l-7.1-22.8C87.1,77.1,85.6,70.8,84.3,65.4z"/>
			<path fill="#FFFFFF" d="M0,0v200h200V0H0z M107,144.6l-8.2-26.3H70l-7.8,26.3H45.2l29-92.7h21.1l29.4,92.7H107z M147.9,144.6
				h-16.7v-67h16.7V144.6z M139.4,68c-5.5,0-9.1-4-9.1-9.1c0-5.2,3.8-9.2,9.3-9.2c5.6,0,9.1,4,9.3,9.2C148.8,64,145.2,68,139.4,68z"
				/>
		</g>
	</g>
</g>
</svg>
