<?xml version="1.0" encoding="utf-8"?>
<!-- Generator: Adobe Illustrator 18.0.0, SVG Export Plug-In . SVG Version: 6.00 Build 0)  -->
<!DOCTYPE svg PUBLIC "-//W3C//DTD SVG 1.1//EN" "http://www.w3.org/Graphics/SVG/1.1/DTD/svg11.dtd">
<svg version="1.1" id="Layer_1" xmlns="http://www.w3.org/2000/svg" xmlns:xlink="http://www.w3.org/1999/xlink" x="0px" y="0px"
	 viewBox="0 0 200 200" enable-background="new 0 0 200 200" xml:space="preserve">
<g id="logo">
	<path id="j" fill="#FFFFFF" d="M2.1,144l22.7-13.8c4.4,7.8,8.4,14.4,17.9,14.4c9.2,0,15-3.6,15-17.5V32.1h27.9v95.3
		c0,28.9-16.9,42.1-41.7,42.1C21.6,169.5,8.7,157.9,2.1,144"/>
	<path id="s" fill="#FFFFFF" d="M100.8,141l22.7-13.2c6,9.8,13.8,17,27.5,17c11.6,0,18.9-5.8,18.9-13.8c0-9.6-7.6-13-20.3-18.5l-7-3
		c-20.1-8.6-33.5-19.3-33.5-42.1c0-20.9,16-36.9,40.9-36.9c17.7,0,30.5,6.2,39.7,22.3l-21.7,14c-4.8-8.6-10-12-17.9-12
		c-8.2,0-13.4,5.2-13.4,12c0,8.4,5.2,11.8,17.1,17l7,3c23.7,10.2,37.1,20.5,37.1,43.9c0,25.1-19.7,38.9-46.3,38.9
		C125.7,169.5,109,157.1,100.8,141"/>
</g>
</svg>
