<?xml version="1.0" encoding="utf-8"?>
<!-- Generator: Adobe Illustrator 18.0.0, SVG Export Plug-In . SVG Version: 6.00 Build 0)  -->
<!DOCTYPE svg PUBLIC "-//W3C//DTD SVG 1.1//EN" "http://www.w3.org/Graphics/SVG/1.1/DTD/svg11.dtd">
<svg version="1.1" id="Layer_1" xmlns="http://www.w3.org/2000/svg" xmlns:xlink="http://www.w3.org/1999/xlink" x="0px" y="0px"
	 viewBox="0 0 200 200" enable-background="new 0 0 200 200" xml:space="preserve">
<g>
	<g>
		<g>
			<path fill="#FFFFFF" d="M73.7,64.1c-4.6,0-7.8,0.4-9.5,0.8v31.4c2,0.6,4.7,0.7,8.1,0.7c12.4,0,19.9-6.2,19.9-17.1
				C92.1,69.6,85.1,64.1,73.7,64.1z"/>
			<path fill="#FFFFFF" d="M0,0.2V200h200V0.2H0z M100.9,100.3c-6.6,6.7-16.9,9.9-28.6,9.9c-3.1,0-5.9-0.1-8.1-0.6v35H47.8
				c0,0,0-91.5,0-91.5c5.9-1.1,14.1-1.9,25.3-1.9c12.1,0,21,2.6,26.8,7.6c5.4,4.5,8.9,11.8,8.9,20.5
				C108.7,88.1,106,95.4,100.9,100.3z M130.5,146.1c-7.9,0-15.1-2.1-19.9-4.8l3.2-12.2c3.8,2.3,10.9,4.8,16.8,4.8
				c7.3,0,10.5-3,10.5-7.4c0-4.5-2.7-6.9-10.8-9.8c-12.8-4.5-18.2-11.7-18-19.5c0-11.8,9.5-21.1,24.7-21.1c7.3,0,13.6,1.9,17.4,4
				l-3.2,12c-2.8-1.7-8.1-3.9-13.8-3.9c-5.9,0-9.1,2.9-9.1,7c0,4.3,3.1,6.3,11.4,9.4c11.8,4.4,17.4,10.6,17.5,20.5
				C157.1,137.2,147.8,146.1,130.5,146.1z"/>
		</g>
	</g>
</g>
</svg>
